<svg xmlns="http://www.w3.org/2000/svg" xmlns:xlink="http://www.w3.org/1999/xlink" viewBox="0 0 21.77 21.79"><defs><style>.cls-1{fill:none;}.cls-2{clip-path:url(#clip-path);}.cls-3{fill:url(#linear-gradient);}</style><clipPath id="clip-path" transform="translate(0 0)"><path class="cls-1" d="M2.41,15.74V12.88a1.58,1.58,0,0,1,1-1.49,1.59,1.59,0,0,1,1.77.35l3.67,3.67L2.41,18.63Zm0-9.68A2.74,2.74,0,0,1,4.14,3.48a2.74,2.74,0,0,1,3,.6l7.71,7.71a4,4,0,0,0,4.39.87l.08,0v3.13a2.8,2.8,0,0,1-4.77,2L6.89,10a4,4,0,0,0-4.4-.87l-.08,0Zm14.18,4L12.92,6.41l6.44-3.24V8.93a1.58,1.58,0,0,1-1,1.5,1.65,1.65,0,0,1-.65.13,1.53,1.53,0,0,1-1.12-.48M20,.13l-8.9,4.48L8.89,2.38A5.13,5.13,0,0,0,3.21,1.25,5.12,5.12,0,0,0,0,6.06V20.59a1.19,1.19,0,0,0,.57,1,1.24,1.24,0,0,0,.64.18,1.29,1.29,0,0,0,.54-.12l8.9-4.46,2.24,2.23A5.1,5.1,0,0,0,16.53,21a5.22,5.22,0,0,0,2-.41,5.12,5.12,0,0,0,3.21-4.81V1.21a1.2,1.2,0,0,0-.57-1A1.21,1.21,0,0,0,20,.13"/></clipPath><linearGradient id="linear-gradient" x1="-438.22" y1="939.41" x2="-437.22" y2="939.41" gradientTransform="matrix(154.29, 0, 0, -154.29, 67605.22, 144948.59)" gradientUnits="userSpaceOnUse"><stop offset="0" stop-color="#ff56b4"/><stop offset="1" stop-color="#568eff"/></linearGradient></defs><g id="Layer_2" data-name="Layer 2"><g id="Layer_1-2" data-name="Layer 1"><g class="cls-2"><rect class="cls-3" width="21.77" height="21.79"/></g></g></g></svg>