<?xml version="1.0" encoding="utf-8"?>
<!-- Generator: Adobe Illustrator 25.4.1, SVG Export Plug-In . SVG Version: 6.00 Build 0)  -->
<svg version="1.1" id="Layer_1" xmlns="http://www.w3.org/2000/svg" xmlns:xlink="http://www.w3.org/1999/xlink" x="0px" y="0px"
	 viewBox="0 0 20 25" style="enable-background:new 0 0 20 25;" xml:space="preserve">
<style type="text/css">
	.st0{fill-rule:evenodd;clip-rule:evenodd;fill:#FFFFFF;}
</style>
<path class="st0" d="M9.61,16.52H9.29c-0.12,0.4-0.52,1.26-1.68,0.99c-0.09-0.02-0.17-0.04-0.25-0.07c0.47,0.76,1.53,0.59,1.68,0.56
	c0.02-0.01,0.04-0.01,0.06-0.01h0.68h0h0h0h0h0h0h0h0h0h0h0l0,0h0h0h0h0h0h0l0,0l0,0h0h0l0,0h0h0h0l0,0l0,0h0l0,0h0h0l0,0h0h0l0,0h0
	l0,0h0h0l0,0l0,0h0h0l0,0l0,0h0h0l0,0l0,0h0l0,0h0l0,0l0,0l0,0h0l0,0l0,0h0l0,0l0,0h0l0,0l0,0l0,0h0l0,0h0l0,0l0,0l0,0l0,0l0,0
	c0.15,0.03,1.21,0.2,1.68-0.56c-0.08,0.03-0.16,0.05-0.25,0.07C10.12,17.78,9.73,16.91,9.61,16.52L9.61,16.52z M9.72,4.43L9.68,5.96
	c0,0.1-0.07,0.19-0.17,0.21L6.98,6.85v1.39l2.57,1.3c0.08,0.04,0.13,0.12,0.13,0.2l0,4.62h0.84h0.36l-0.02-1.16
	c0-0.01,0-0.02,0-0.02l0-0.2c0-0.01,0-0.02,0-0.03l-0.04-3c0-0.01,0-0.02,0-0.02V9.05c0-0.1,0.07-0.19,0.16-0.22l1.11-0.41V6.38
	c0-0.1,0.06-0.18,0.15-0.21l1.24-0.61L12.2,4.43H9.72L9.72,4.43z M9.22,14.37H8.38l-0.02,0H8.01l0-1.09c0.02-0.05,0.02-0.11,0-0.16
	l0.01-3.17c0-0.1-0.06-0.19-0.16-0.22L4.9,8.67C4.78,8.63,4.65,8.69,4.61,8.81C4.6,8.85,4.59,8.88,4.6,8.92c0,0,0.13,1.09,1.33,1.77
	l0.11,0.06c0.79,0.44,1.29,0.72,1.53,1.11l-0.01,1.28l-1.6,2.07c-0.1-0.14-0.23-0.33-0.38-0.55c-0.01-0.02-0.02-0.03-0.03-0.04
	c-0.4-0.63-0.86-1.5-0.89-2.18L5,11.52c0.04-0.12-0.02-0.25-0.14-0.29c-0.12-0.04-0.25,0.02-0.29,0.14l-0.34,0.96
	c-0.01,0.02-0.01,0.05-0.01,0.08c0.01,0.67,0.4,1.49,0.78,2.15c-1.12,0.05-2.03-0.17-2.72-0.47c-0.02-0.01-0.04-0.02-0.07-0.03
	c-0.8-0.36-1.32-0.83-1.59-1.11c1.23-0.45,2.27-1.43,2.39-1.54c0.03-0.03,0.06-0.07,0.07-0.11c0.03-0.12-0.04-0.25-0.16-0.28
	l-1.49-0.42c0.75-0.6,1.72-1.67,2.65-2.72C4.08,7.86,4.09,7.85,4.1,7.84c0.2-0.22,0.39-0.45,0.58-0.67c0.62-0.71,1.18-1.36,1.6-1.78
	C6.28,5.38,6.29,5.38,6.3,5.37C6.46,5.2,6.6,5.08,6.71,5C6.89,4.88,7.1,4.78,7.33,4.7c0.02,0,0.04-0.01,0.06-0.02
	c0.7-0.22,1.53-0.25,1.88-0.25L9.22,5.78L6.69,6.46c-0.1,0.03-0.17,0.12-0.17,0.22v1.71c0,0.09,0.06,0.18,0.14,0.21l2.56,1.29V14.37
	L9.22,14.37z M6.91,4.37C6.56,3.94,5.76,3.03,4.92,2.43C4.25,1.96,3.8,1.57,3.54,1.32C3.35,2.15,2.95,4.06,3.12,4.96l0,0.02
	c0.2-1.07,0.52-2.05,0.56-2.17C3.72,2.7,3.83,2.63,3.95,2.65c0.12,0.02,0.2,0.14,0.18,0.27c0,0-0.01,0.01,0.6,0.48
	c0.2,0.15,0.44,0.39,0.68,0.64c0.25,0.27,0.51,0.58,0.74,0.85c0.11-0.11,0.22-0.19,0.3-0.25C6.58,4.53,6.74,4.45,6.91,4.37
	L6.91,4.37z M5.82,5.21C5.6,4.94,5.33,4.63,5.07,4.35C4.85,4.11,4.63,3.9,4.45,3.76c-0.2-0.15-0.35-0.29-0.46-0.4
	c-0.18,0.59-0.47,1.7-0.54,2.68l0.01,0.04c0.16,0.42,0.35,0.85,0.51,1.21l0.36-0.41C4.57,6.6,4.8,6.34,5.02,6.09
	c-0.4-0.53-0.8-1.05-0.8-1.05c-0.08-0.1-0.06-0.24,0.05-0.32c0.1-0.08,0.24-0.06,0.32,0.05c0,0,0.37,0.48,0.75,0.98
	C5.5,5.55,5.67,5.37,5.82,5.21L5.82,5.21z M3.64,7.67c-0.18-0.38-0.41-0.9-0.61-1.43L3,6.14C2.86,5.76,2.74,5.38,2.68,5.05
	C2.43,3.78,3.19,0.82,3.19,0.81C3.2,0.77,3.23,0.73,3.27,0.7c0.1-0.08,0.24-0.07,0.32,0.03c0,0,0.45,0.53,1.59,1.34
	c0.98,0.69,1.9,1.79,2.19,2.15c0.91-0.26,1.92-0.24,2.07-0.24l0.01,0h2.72l2.6-3.89c0.07-0.1,0.21-0.13,0.32-0.06
	c0.03,0.02,0.05,0.04,0.06,0.07c0,0,0.38,0.59,0.74,1.53l0.01,0.02c0.52,1.38,0.97,3.53,0.09,5.72c0,0.01-0.01,0.02-0.01,0.02
	c-0.04,0.09-0.07,0.18-0.11,0.25l-0.04,0.09c1.97,1.8,4.01,4.97,4.12,5.15c0.03,0.04,0.05,0.1,0.04,0.15
	c-0.01,0.12-0.12,0.22-0.25,0.2l-2.74-0.28l0.89,1.13c0.03,0.04,0.05,0.08,0.05,0.13l0.23,1.84c0.02,0.12-0.07,0.24-0.19,0.25
	l-0.69,0.1c-0.7,5.46-5.05,8.15-5.24,8.26c-0.04,0.02-0.08,0.04-0.12,0.04c-0.13,0-0.23-0.1-0.23-0.23l-0.01-0.75
	c-0.82,0.71-1.67,1.18-1.78,1.24C9.87,25,9.83,25.01,9.79,25.01c-0.13,0-0.23-0.1-0.23-0.23v-0.67C9,24.74,8.38,24.88,8.29,24.9
	c-0.05,0.01-0.11,0.01-0.16-0.02c-0.11-0.06-0.16-0.2-0.1-0.31c0,0,0.36-0.63-1.51-2.24c-0.46-0.4-0.83-0.83-1.13-1.27
	c-0.25-0.37-0.45-0.74-0.6-1.09c-0.29,0.59-0.41,1.01-0.42,1.06c-0.01,0.05-0.04,0.09-0.08,0.13c-0.1,0.08-0.24,0.06-0.32-0.04
	c-1.03-1.33-1.57-2.7-1.84-3.9c-0.25-1.12-0.27-2.11-0.23-2.81c-1.2-0.57-1.8-1.35-1.86-1.44c-0.02-0.02-0.03-0.05-0.04-0.08
	c-0.03-0.12,0.04-0.25,0.16-0.28c0.93-0.26,1.79-0.9,2.23-1.27L0.85,10.9c-0.05-0.02-0.1-0.05-0.13-0.1
	c-0.07-0.11-0.03-0.25,0.08-0.31C1.5,10.05,2.59,8.86,3.64,7.67L3.64,7.67z M5.76,15.7C5.69,15.62,5.5,15.36,5.27,15
	c-1.18,0.09-2.14-0.1-2.91-0.39c-0.03,0.66,0.01,1.53,0.23,2.52c0.23,1.05,0.68,2.22,1.5,3.37c0.11-0.28,0.28-0.69,0.54-1.15
	c0.01-0.02,0.02-0.03,0.03-0.05c0.41-0.72,1.03-1.57,1.94-2.34C6.07,16.48,5.82,15.87,5.76,15.7L5.76,15.7z M9.13,18.44h0.43v4.9
	c-0.34,0.6-0.78,0.88-1.06,1.01c-0.04-0.45-0.36-1.24-1.67-2.36c-0.43-0.37-0.78-0.78-1.05-1.18c-0.32-0.47-0.54-0.94-0.7-1.35
	c0.38-0.65,0.94-1.4,1.74-2.09C7.31,18.73,8.9,18.48,9.13,18.44L9.13,18.44z M7.56,13.89l0,0.7c0,0.02,0,0.05,0.01,0.07l0.47,1.67
	c0.02,0.11,0.11,0.18,0.22,0.18H8.8c-0.12,0.29-0.42,0.7-1.09,0.55c-0.23-0.05-0.43-0.15-0.61-0.27c-0.01-0.01-0.03-0.02-0.04-0.03
	c-0.49-0.36-0.75-0.9-0.84-1.13L7.56,13.89L7.56,13.89z M7.57,11.18c-0.31-0.27-0.74-0.51-1.31-0.83l-0.11-0.06
	C5.59,9.97,5.31,9.55,5.17,9.25l2.4,0.86L7.57,11.18L7.57,11.18z M11.68,23.12c-0.6,0.57-1.28,1.02-1.67,1.26v-5.91
	c0.57,0.05,1.84,0,2.13-1.38c0.18-0.14,0.33-0.29,0.45-0.45c0.04,0.27,0.09,0.58,0.13,0.92c0.05,0.4,0.1,0.84,0.13,1.29
	c-0.34,0.45-0.72,0.9-1.15,1.34c-0.05,0.05-0.07,0.11-0.06,0.17L11.68,23.12L11.68,23.12z M13.27,18.27c0.87-1.3,1.4-2.51,1.63-3.14
	l-1.8,0.64c-0.03,0.07-0.07,0.18-0.14,0.3c0.06,0.32,0.14,0.83,0.22,1.43C13.22,17.75,13.25,18.01,13.27,18.27L13.27,18.27z
	 M13.29,19.04c-0.01,0.01-0.01,0.02-0.02,0.03c-0.34,0.46-0.73,0.93-1.16,1.37l0.03,2.77l0,0.02l0.01,0.84
	c0.32-0.23,0.85-0.64,1.44-1.22l-0.03-2.1c0-0.05,0.01-0.1,0.04-0.14c1.64-2.29,2.08-4.2,2.16-4.6l-0.42-0.72
	C15.06,16.01,14.42,17.51,13.29,19.04L13.29,19.04z M12.52,15.96c-0.14,0.25-0.36,0.57-0.69,0.81c-0.01,0.01-0.03,0.02-0.04,0.03
	c-0.17,0.12-0.38,0.22-0.61,0.27c-0.67,0.15-0.97-0.26-1.09-0.55h0.55c0.11,0,0.2-0.08,0.22-0.18l0.47-1.67
	c0.01-0.02,0.01-0.05,0.01-0.07l-0.01-0.71l1.34,1.75c-0.03,0.07-0.07,0.16-0.12,0.27C12.54,15.92,12.53,15.94,12.52,15.96
	L12.52,15.96z M16.82,16.48l-0.57,0.08c-0.06,0.01-0.11,0-0.15-0.03c-0.22,0.8-0.78,2.42-2.09,4.27l0.02,1.57
	C15.2,21.08,16.45,19.12,16.82,16.48L16.82,16.48z M12.59,4.17l2.36-3.52c0.13,0.23,0.3,0.58,0.48,1.03l-2.34,2.93L12.59,4.17
	L12.59,4.17z M13.43,4.91l2.18-2.73c0.4,1.23,0.68,2.95,0.07,4.73L13.43,4.91L13.43,4.91z M15.5,7.36l-0.02,0.06
	c-0.03-0.03-0.07-0.06-0.1-0.08c-0.06-0.06-0.15-0.08-0.23-0.05l-2.6,0.96V6.52l1.3-0.64L15.5,7.36L15.5,7.36z M15.18,7.76
	l-0.34,0.13l-0.28,1.96l2.06,2.61l2.71,0.28c-0.63-0.95-2.31-3.36-3.91-4.77l0,0L15.4,7.95C15.33,7.89,15.25,7.82,15.18,7.76
	L15.18,7.76z M14.46,10.47l3.04,3.85l0.2,1.57l-1.36,0.2l-0.14-0.24l-0.01-0.01l-1.61-2.75c-0.06-0.11-0.2-0.14-0.3-0.09l-2.19,1.12
	l-0.77-1v0l2.87-1.42c0.07-0.03,0.11-0.1,0.13-0.17L14.46,10.47L14.46,10.47z M12.37,14.49l1.93-0.98l0.66,1.13l-1.95,0.69
	L12.37,14.49L12.37,14.49z M14.35,8.07l-0.26,1.8l0,0.01l0,0.01l-0.21,1.47l-2.56,1.27l-0.01-1l1.69-0.66
	c0.06-0.02,0.1-0.07,0.13-0.13l0.53-1.29c0.02-0.04,0.03-0.09,0.02-0.14c-0.03-0.12-0.15-0.2-0.27-0.18l-2.12,0.45V9.2L14.35,8.07
	L14.35,8.07z M11.28,10.14l1.79-0.38l-0.33,0.81l-1.44,0.57L11.28,10.14L11.28,10.14z M10.52,14.83H9.45H8.38H8.08l0.34,1.23h0.51
	h1.03h0.51l0.34-1.23H10.52z"/>
</svg>
